<svg width="36" height="36" viewBox="0 0 36 36" fill="none" xmlns="http://www.w3.org/2000/svg">
<path fill-rule="evenodd" clip-rule="evenodd" d="M27.744 15.3623V18.3773L25.1302 19.8855L23.6227 22.497H23.2395C23.2395 22.4978 23.2402 22.4993 23.2402 22.5V33.75C23.2402 33.753 23.2387 33.7553 23.2387 33.7583C23.2417 33.9488 23.172 34.1408 23.0265 34.2863C22.881 34.4318 22.689 34.5015 22.4977 34.4985C22.4955 34.4985 22.4932 34.5 22.4902 34.5C22.2502 34.5 22.0455 34.38 21.909 34.2038L17.9902 30.285L14.0715 34.2038C13.935 34.38 13.731 34.5 13.4902 34.5C13.4872 34.5 13.485 34.4985 13.4827 34.4985C13.2915 34.5015 13.0995 34.4318 12.954 34.2863C12.8092 34.1408 12.7387 33.9488 12.7417 33.7583C12.7417 33.7553 12.7402 33.753 12.7402 33.75V22.5C12.7402 22.4993 12.741 22.4978 12.741 22.497H12.3607L10.8517 19.8855L8.23872 18.3773V15.3623L6.73047 12.7508L8.23872 10.1385V7.12128L10.8517 5.61153L12.3607 3.00229H15.3795L17.9895 1.49329L20.6025 3.00229H23.6212L25.1287 5.61153L27.7425 7.12128V10.1378L29.25 12.7508L27.744 15.3623ZM14.2402 22.5V31.9643L17.3827 28.8218C17.4067 28.7865 17.4225 28.746 17.454 28.7138C17.6017 28.5668 17.7967 28.4985 17.9902 28.503C18.1837 28.4985 18.3787 28.5668 18.5265 28.7138C18.558 28.746 18.573 28.7865 18.5977 28.8218L21.7402 31.9643V22.5C21.7402 22.4993 21.741 22.4978 21.741 22.497H20.6032L17.9902 24.0068L15.3802 22.497H14.2395C14.2395 22.4978 14.2402 22.4993 14.2402 22.5ZM26.2402 10.539V7.98678L24.0292 6.70953L22.755 4.50228H20.2005L17.9917 3.22654L15.7845 4.50228H13.23L11.9542 6.70878L9.74247 7.98603V10.539L8.46672 12.7508L9.74247 14.961V17.511L11.9542 18.7875L13.23 20.9963H15.7837L17.991 22.272L20.1997 20.9963H22.7535L24.0277 18.7875L26.2395 17.511V14.9618L27.5145 12.7508L26.2402 10.539Z" fill="white"/>
</svg>
