<svg width="36" height="36" viewBox="0 0 36 36" fill="none" xmlns="http://www.w3.org/2000/svg">
<path fill-rule="evenodd" clip-rule="evenodd" d="M27 13.5C27 17.6925 24.1297 21.204 20.25 22.2045V30H24.75C25.1647 30 25.5 30.336 25.5 30.75C25.5 31.1647 25.1647 31.5 24.75 31.5H11.25C10.8352 31.5 10.5 31.1647 10.5 30.75C10.5 30.336 10.8352 30 11.25 30H15.75V22.2045C11.8702 21.204 9 17.6925 9 13.5C6.1005 13.5 3.75 11.1495 3.75 8.25V6.75C3.75 6.336 4.08525 6 4.5 6H9V5.25C9 4.00725 7.99275 3 6.75 3C6.33525 3 6 2.664 6 2.25C6 1.836 6.33525 1.5 6.75 1.5H29.25C29.6647 1.5 30 1.836 30 2.25C30 2.664 29.6647 3 29.25 3C28.0072 3 27 4.00725 27 5.25V6H31.5C31.9147 6 32.25 6.336 32.25 6.75V8.25C32.25 11.1495 29.8995 13.5 27 13.5ZM17.25 30H18.75V22.4617C18.5025 22.4827 18.2535 22.5 18 22.5C17.7465 22.5 17.4975 22.4827 17.25 22.4617V30ZM5.25 7.5V8.25C5.25 10.3215 6.9285 12 9 12V7.5H5.25ZM9.7335 3C10.2075 3.6285 10.5 4.40175 10.5 5.25V13.5C10.5 17.6422 13.8577 21 18 21C22.1415 21 25.5 17.6422 25.5 13.5V5.25C25.5 4.40175 25.7925 3.6285 26.2665 3H9.7335ZM30.75 7.5H27V12C29.0715 12 30.75 10.3215 30.75 8.25V7.5ZM9 33H27C27.4147 33 27.75 33.336 27.75 33.75C27.75 34.1647 27.4147 34.5 27 34.5H9C8.58525 34.5 8.25 34.1647 8.25 33.75C8.25 33.336 8.58525 33 9 33Z" fill="white"/>
</svg>
