<svg width="36" height="36" viewBox="0 0 36 36" fill="none" xmlns="http://www.w3.org/2000/svg">
<path fill-rule="evenodd" clip-rule="evenodd" d="M35.25 30C35.25 32.0715 33.5715 33.75 31.5 33.75H4.5C2.4285 33.75 0.75 32.0715 0.75 30V8.25001C0.75 6.59326 2.09325 5.25001 3.75 5.25001H18.8783L24.9525 3.04951C25.3373 2.90926 25.7633 3.10801 25.9035 3.49126L26.5433 5.25001H29.25C30.9068 5.25001 32.25 6.59326 32.25 8.25001V9.75001C33.9068 9.75001 35.25 11.0933 35.25 12.75V30ZM3.75 6.75001C2.922 6.75001 2.25 7.42201 2.25 8.25001C2.25 9.07801 2.922 9.75001 3.75 9.75001H6.33375H6.4755C6.48525 9.74626 6.49125 9.73801 6.501 9.73426L14.7375 6.75001H3.75ZM25.5585 6.88576L24.762 4.69276H24.7613L23.223 5.25001H23.2253L19.0898 6.75001H19.0823L10.803 9.75001H26.5995L25.5585 6.88576ZM30.75 8.25001C30.75 7.42201 30.078 6.75001 29.25 6.75001H27.0878L28.1783 9.75001H30.75V8.25001ZM32.25 11.25H3.75C3.201 11.25 2.6925 11.0918 2.25 10.8338V30C2.25 31.2428 3.258 32.25 4.5 32.25H31.5C32.7428 32.25 33.75 31.2428 33.75 30V24.75H30.75C29.0933 24.75 27.75 23.4068 27.75 21.75C27.75 20.0933 29.0933 18.75 30.75 18.75H33.75V12.75C33.75 11.922 33.078 11.25 32.25 11.25ZM33.75 23.25V20.25H30.75C29.922 20.25 29.25 20.922 29.25 21.75C29.25 22.578 29.922 23.25 30.75 23.25H33.75ZM30.75 21H32.25V22.5H30.75V21Z" fill="white"/>
</svg>
