<svg width="36" height="36" viewBox="0 0 36 36" fill="none" xmlns="http://www.w3.org/2000/svg">
<path fill-rule="evenodd" clip-rule="evenodd" d="M28.5 19.5C28.464 19.5 28.4302 19.4918 28.3942 19.4895C27.987 22.5473 26.352 25.2143 24 26.9843V32.25C24 33.9068 22.6567 35.25 21 35.25H13.5C11.8432 35.25 10.5 33.9068 10.5 32.25V26.9843C7.77225 24.9315 6 21.6765 6 18C6 14.3228 7.77225 11.0678 10.5 9.01575V3.75C10.5 2.09325 11.8432 0.75 13.5 0.75H21C22.6567 0.75 24 2.09325 24 3.75V9.01575C26.3527 10.7858 27.987 13.4528 28.3942 16.5105C28.4302 16.5083 28.464 16.5 28.5 16.5C29.328 16.5 30 17.172 30 18C30 18.828 29.328 19.5 28.5 19.5ZM12 32.25C12 33.078 12.672 33.75 13.5 33.75H21C21.828 33.75 22.5 33.078 22.5 32.25V27.9465C20.9317 28.7753 19.1467 29.25 17.25 29.25C15.3532 29.25 13.5682 28.7753 12 27.9465V32.25ZM22.5 3.75C22.5 2.922 21.828 2.25 21 2.25H13.5C12.672 2.25 12 2.922 12 3.75V8.0535C13.5682 7.224 15.3532 6.75 17.25 6.75C19.1467 6.75 20.9317 7.224 22.5 8.0535V3.75ZM17.25 8.25C11.865 8.25 7.5 12.615 7.5 18C7.5 23.385 11.865 27.75 17.25 27.75C22.635 27.75 27 23.385 27 18C27 12.615 22.635 8.25 17.25 8.25ZM18 20.112V24.75C18 25.1648 17.6647 25.5 17.25 25.5C16.8352 25.5 16.5 25.1648 16.5 24.75V20.112C15.6285 19.8023 15 18.978 15 18C15 17.6468 15.0885 17.3175 15.234 17.019L12.9645 14.7495C12.6787 14.4638 12.6787 13.9995 12.9645 13.7138C13.251 13.428 13.7145 13.428 14.0002 13.7138L16.2697 15.9833C16.5675 15.8385 16.8967 15.75 17.25 15.75C18.4927 15.75 19.5 16.758 19.5 18C19.5 18.9788 18.8722 19.8023 18 20.112ZM17.25 17.25C16.8352 17.25 16.5 17.5853 16.5 18C16.5 18.4148 16.8352 18.75 17.25 18.75C17.6647 18.75 18 18.4148 18 18C18 17.5853 17.6647 17.25 17.25 17.25Z" fill="white"/>
</svg>
